<svg width="100%" height="100%" xmlns="http://www.w3.org/2000/svg">
    <g id="robot_model">
        <g stroke="null" id="base_coor">
            <circle cx="224" cy="434" r="50" stroke-dasharray="5,2,2,2,2,2" stroke="#000" fill="#fff"/>
            <circle cx="224" cy="434" r="2" stroke="black"/>
        </g>
        <g id="left_rotation">
            <circle id="left_rotation_axis" cx="204" cy="419" stroke="#000" stroke-width="2" r="19.3" fill="none"/>
            <line id="left_rotation_line" x1="204" y1="419" x2="148" y2="419" stroke-width="2" stroke="#BBBBBB" fill="none"/>
            <circle stroke="#000" stroke-width="2" r="14" id="left_extension_axis" cx="148" cy="419" fill="none"/>
            <circle stroke="#888888" r="4" id="left_rotation_center" cx="204" cy="419" fill="#CCCCCC"/>
            <g id="left_rotation_arm">
                <line fill="none" stroke="#000" stroke-width="2" x1="204" y1="399" x2="170" y2="399" id="left_rotation_arm_1"/>
                <line fill="none" stroke="#000" stroke-width="2" x1="204" y1="439" x2="170" y2="439" id="left_rotation_arm_2"/>
                <line fill="none" stroke="#000" stroke-width="2" x1="170" y1="399" x2="148" y2="405" id="left_rotation_arm_3"/>
                <line fill="none" stroke="#000" stroke-width="2" x1="170" y1="439" x2="148" y2="433" id="left_rotation_arm_4"/>
            </g>
        </g>
        <g id="left_wafer">
            <rect id="left_wafer_arm1" height="10" width="10" x="204" y="309" stroke="#000" fill="none"/>
            <rect id="left_wafer_arm2" height="110" width="20" x="214" y="314" stroke="#000" fill="none"/>
            <circle fill="#DDDDDD" stroke="#000" cx="224" cy="314" id="left_wafer_circle" r="30"/>
        </g>
        <g id="left_extension">
            <line fill="none" stroke-width="2" stroke="#BBBBBB" x1="148" y1="419" x2="204" y2="419" id="left_extension_line"/>
            <circle fill="#CCCCCC" stroke="#888888" cx="148" cy="419" id="left_extension_center" r="4"/>
            <circle fill="none" stroke-width="2" stroke="#000" cx="204" cy="419" id="left_extension_end_axis" r="10"/>
            <circle fill="#CCCCCC" stroke="#888888" cx="204" cy="419" id="left_extension_end_center" r="4"/>
            <g id="left_extension_arm">
                <line fill="none" stroke-width="2" stroke="#000" x1="148" y1="405" x2="186" y2="405" id="left_extension_arm_1"/>
                <line fill="none" stroke-width="2" stroke="#000" x1="148" y1="433" x2="186" y2="434" id="left_extension_arm_2"/>
                <line fill="none" stroke-width="2" stroke="#000" x1="186" y1="405" x2="204" y2="409" id="left_extension_arm_3"/>
                <line fill="none" stroke-width="2" stroke="#000" x1="186" y1="434" x2="204" y2="430" id="left_extension_arm_4"/>
            </g>
        </g>
        <g id="right_rotation">
            <line id="right_rotation_line" stroke-width="2" y2="419" x2="300" y1="419" x1="244" stroke="#BBBBBB" fill="none"/>
            <circle stroke="#000" stroke-width="2" r="19.3" id="right_rotation_axis" cy="419" cx="244" fill="none"/>
            <circle stroke="#000" stroke-width="2" r="14" id="right_extension_axis" cy="419" cx="300" fill="none"/>
            <circle stroke="#888888" r="4" id="right_rotation_center" cy="419" cx="244" fill="#CCCCCC"/>
            <g id="right_rotation_arm">
                <line fill="none" stroke-width="2" stroke="#000" x1="246" y1="399" x2="280" y2="399" id="svg_3"/>
                <line fill="none" stroke-width="2" stroke="#000" x1="246" y1="439" x2="280" y2="439" id="svg_7"/>
                <line fill="none" stroke-width="2" stroke="#000" x1="280" y1="399" x2="302" y2="405" id="svg_8"/>
                <line fill="none" stroke-width="2" stroke="#000" x1="280" y1="439" x2="302" y2="433" id="svg_11"/>
            </g>
        </g>
        <g id="right_wafer">
            <rect id="right_wafer_arm1" height="10" width="10" x="234" y="414" stroke="#000" fill="none"/>
            <rect id="right_wafer_arm2" height="110" width="20" x="214" y="314" stroke="#000" fill="none"/>
            <circle fill="#DDDDDD" stroke="#000" cx="224" cy="314" id="right_wafer_circle" r="30"/>
        </g>
        <g id="right_extension">
            <line fill="none" stroke-width="2" stroke="#BBBBBB" x1="300" y1="419" x2="244" y2="419" id="right_extension_line"/>
            <circle fill="#CCCCCC" stroke="#888888" cx="300" cy="419" id="right_extension_center" r="4"/>
            <circle fill="none" stroke-width="2" stroke="#000" cx="244" cy="419" id="right_extension_end_axis" r="10"/>
            <circle fill="#CCCCCC" stroke="#888888" cx="244" cy="419" id="right_extension_end_center" r="4"/>
            <g id="right_extension_arm">
            <line fill="none" stroke-width="2" stroke="#000" x1="302" y1="405" x2="264" y2="405" id="svg_38"/>
            <line fill="none" stroke-width="2" stroke="#000" x1="302" y1="433" x2="264" y2="433" id="svg_39"/>
            <line fill="none" stroke-width="2" stroke="#000" x1="264" y1="405" x2="244" y2="409" id="svg_40"/>
            <line fill="none" stroke-width="2" stroke="#000" x1="264" y1="433" x2="244" y2="429" id="svg_41"/>
            </g>
        </g>
    </g>
</svg>